<?xml version="1.0" encoding="UTF-8"?>
<svg width="109px" height="50px" viewBox="0 0 109 50" version="1.1" xmlns="http://www.w3.org/2000/svg" xmlns:xlink="http://www.w3.org/1999/xlink">
    <!-- Generator: Sketch 52 (66869) - http://www.bohemiancoding.com/sketch -->
    <title>logo</title>
    <desc>Created with Sketch.</desc>
    <g id="2nd-Design" stroke="none" stroke-width="1" fill="none" fill-rule="evenodd">
        <g id="Landing-Page" transform="translate(0.000000, -799.000000)" fill="#010101">
            <g id="hero">
                <g id="divider" transform="translate(0.000000, 799.000000)">
                    <g id="logo" transform="translate(54.255319, 25.000000) rotate(90.000000) translate(-54.255319, -25.000000) translate(29.255319, -29.255319)">
                        <path d="M49.6126374,65.4336804 C49.7074176,65.3399728 49.7967033,65.240833 49.9010989,65.1281123 C49.9296705,65.0958481 49.9296705,65.0476558 49.9010989,65.0153916 C49.8145604,64.9203259 49.739011,64.8334088 49.6565934,64.753282 C46.1382784,61.2802173 42.6236264,57.8044364 39.1126374,54.3259393 L39.0755495,54.2919873 C39.1352773,54.2456042 39.1917277,54.1952378 39.2445055,54.1412404 C42.6831502,50.7116342 46.1327839,47.2933454 49.5934066,43.8863739 C49.9217033,43.5631507 49.9354396,43.4056134 49.5934066,43.0715256 C46.1991758,39.7469443 42.8324176,36.3965595 39.4368132,33.0733364 C39.0604396,32.7039384 39.043956,32.5301041 39.4368132,32.1444092 C42.8452381,28.8089633 46.2394689,25.4590312 49.6195055,22.0946129 L49.6648352,22.0484382 C49.8379362,21.8732487 49.8379362,21.5934783 49.6648352,21.4182888 C46.1410256,17.9470349 42.6236264,14.472612 39.1126374,10.9950204 C38.8695055,10.753282 38.7706044,10.785876 38.5467033,11.0086012 C35.0668498,14.4689905 31.5750916,17.9203259 28.0714286,21.3626075 C27.7458791,21.6817565 27.7802198,21.8365776 28.0851648,22.1367134 C31.5027473,25.4938886 34.8997253,28.870077 38.3186813,32.2258941 C38.4201014,32.3251225 38.4771682,32.4603331 38.4771682,32.6014033 C38.4771682,32.7424736 38.4201014,32.8776842 38.3186813,32.9769126 C34.9249084,36.3078316 31.5407509,39.6487098 28.1662088,42.9995473 C27.6730769,43.4870982 27.6730769,43.4884563 28.146978,43.9502037 C31.5911172,47.3490267 35.0320513,50.7510186 38.4697802,54.1561793 C38.5128832,54.1997776 38.5587645,54.2406035 38.6071429,54.2784065 L38.5453297,54.336804 C35.0654762,57.7971933 31.5737179,61.2485287 28.0700549,64.6908103 C27.7445055,65.0099593 27.7788462,65.1647804 28.0837912,65.4649163 C31.5013736,68.8220914 34.8983516,72.1982798 38.3173077,75.5540969 C38.4187278,75.6533253 38.4757946,75.7885359 38.4757946,75.9296062 C38.4757946,76.0706764 38.4187278,76.205887 38.3173077,76.3051154 C34.9235348,79.6360344 31.5393773,82.9769126 28.1648352,86.3277501 C27.6717033,86.815301 27.6717033,86.8166591 28.1456044,87.2784065 C31.5897436,90.6772295 35.0306777,94.0792214 38.4684066,97.4843821 C38.7953297,97.8103214 38.9450549,97.7641467 39.2431319,97.466727 C42.6817766,94.0371209 46.1314103,90.6188321 49.592033,87.2118606 C49.9203297,86.8886374 49.9340659,86.7311 49.592033,86.3970122 C46.1978022,83.072431 42.831044,79.7220462 39.4354396,76.398823 C39.0590659,76.0294251 39.0425824,75.8555908 39.4354396,75.4698959 C42.8438645,72.13445 46.2380952,68.7845179 49.6181319,65.4200996 M38.5068681,31.8347669 C36.0902015,29.4635582 33.6771978,27.0864645 31.2678571,24.7034857 C30.4010989,23.8465369 29.5480769,22.9773653 28.657967,22.1407877 C28.353022,21.8528746 28.3021978,21.6966953 28.635989,21.370756 C31.9326923,18.1493889 35.2147436,14.9148936 38.4821429,11.6672703 C38.7486264,11.4024445 38.8942308,11.3508375 39.1909341,11.646899 C42.4684066,14.9062924 45.7577839,18.1584427 49.0590659,21.4033499 C49.353022,21.691263 49.3200549,21.8311453 49.0467033,22.1014033 C45.764652,25.3354459 42.4899267,28.5767316 39.2225275,31.8252603 C39.1112637,31.9352648 38.9931319,32.039837 38.8846154,32.1416931 C38.6909341,32.1077411 38.6098901,31.9583522 38.4986264,31.8510638 M38.4848901,53.5803531 C35.3246337,50.4504301 32.1620879,47.3223178 28.9972527,44.1960163 C28.2774725,43.4843821 28.2774725,43.483024 28.9862637,42.7836125 L38.4862637,33.4128565 C38.5961538,33.30421 38.7156593,33.2037121 38.8475275,33.084201 C38.9450549,33.1711182 39.0260989,33.2349479 39.0989011,33.3069262 C42.4505495,36.6197374 45.8035714,39.9311906 49.157967,43.2412856 C49.3585165,43.4395654 49.3392857,43.5468538 49.1483516,43.7342689 C45.8076923,47.0334993 42.4739011,50.3381621 39.146978,53.6482571 C38.8282967,53.966048 38.6964286,53.7840652 38.4848901,53.5762789 M49.157967,86.5776369 C49.3585165,86.7759167 49.3392857,86.8832051 49.1483516,87.0706202 C45.8076923,90.3698506 42.4739011,93.6745134 39.146978,96.9846084 C38.8282967,97.3023993 38.6964286,97.1204165 38.4848901,96.9126301 C35.3246337,93.7827071 32.1620879,90.6545948 28.9972527,87.5282933 C28.2774725,86.8166591 28.2774725,86.815301 28.9862637,86.1158895 L38.4862637,76.7451335 C38.5961538,76.6364871 38.7156593,76.5359891 38.8475275,76.416478 C38.9450549,76.5020371 39.0260989,76.567225 39.0989011,76.6392033 C42.4505495,79.9520145 45.8035714,83.2634676 49.157967,86.5735627 M38.8846154,75.4698959 C38.6909341,75.4359439 38.6098901,75.286555 38.4986264,75.1792666 C36.0874542,72.7990041 33.6771978,70.4146673 31.2678571,68.0262562 C30.4010989,67.1693074 29.5480769,66.3001358 28.657967,65.4635582 C28.353022,65.1756451 28.3021978,65.0194658 28.635989,64.6935265 C31.9326923,61.4721593 35.2147436,58.2376641 38.4821429,54.9900407 C38.7486264,54.725215 38.8942308,54.673608 39.1909341,54.9696695 C42.4684066,58.2290629 45.7577839,61.4812132 49.0590659,64.7261204 C49.353022,65.0140335 49.3200549,65.1539158 49.0467033,65.4241738 C45.764652,68.6582164 42.4899267,71.899502 39.2225275,75.1480308 C39.1112637,75.2580353 38.9931319,75.3626075 38.8846154,75.4644636" id="Shape" fill-rule="nonzero"></path>
                        <polygon id="Path" points="38.8434066 65.0615663 38.8434066 65.0615663 38.8434066 65.0710729 38.8543956 65.0710729 38.8543956 65.0615663"></polygon>
                        <rect id="Rectangle" x="11.0563187" y="21.7292893" width="1" height="1"></rect>
                        <path d="M21.8049451,87.218651 C22.1332418,86.8954278 22.146978,86.7378904 21.8049451,86.4038026 C18.4107143,83.0792214 15.043956,79.7288366 11.6483516,76.4056134 C11.271978,76.0362155 11.2554945,75.8623812 11.6483516,75.4766863 C15.0558608,72.1412404 18.4496337,68.7913083 21.8296703,65.42689 C21.8695055,65.3875057 21.9093407,65.3454052 21.9491758,65.3033047 C22.07516,65.169342 22.07516,64.9619391 21.9491758,64.8279765 L21.8708791,64.7478497 C18.3470696,61.2784065 14.8296703,57.8044364 11.3186813,54.3259393 L11.2815934,54.2919873 C11.3414179,54.2457177 11.3978759,54.1953444 11.4505495,54.1412404 C14.8891941,50.7116342 18.3388278,47.2933454 21.7994505,43.8863739 C22.1277473,43.5631507 22.1414835,43.4056134 21.7994505,43.0715256 C18.4052198,39.7469443 15.0384615,36.3965595 11.6428571,33.0733364 C11.2664835,32.7039384 11.25,32.5301041 11.6428571,32.1444092 C15.0503663,28.8089633 18.4441392,25.4590312 21.8241758,22.0946129 L21.8695055,22.0484382 C22.0426065,21.8732487 22.0426065,21.5934783 21.8695055,21.4182888 C18.3466117,17.9470349 14.8296703,14.472612 11.3186813,10.9950204 C11.0755495,10.753282 10.9766484,10.785876 10.7527473,11.0086012 C7.27289377,14.4689905 3.78113553,17.9203259 0.277472527,21.3626075 C-0.0480769231,21.6817565 -0.0137362637,21.8365776 0.291208791,22.1367134 C3.70604396,25.4898144 7.10027473,28.8646446 10.5164835,32.2163875 C10.6196577,32.3182806 10.67763,32.4565455 10.67763,32.6007243 C10.67763,32.7449032 10.6196577,32.883168 10.5164835,32.9850611 C7.12820513,36.3123585 3.74725275,39.6500679 0.373626374,42.9981892 C-0.119505495,43.4857402 -0.119505495,43.4870982 0.354395604,43.9488456 C3.7985348,47.3476686 7.23946886,50.7496605 10.6771978,54.1548212 C10.7203316,54.1983877 10.7662108,54.2392117 10.8145604,54.2770484 L10.7527473,54.3354459 C7.27289377,57.7958352 3.78113553,61.2471707 0.277472527,64.6894522 C-0.0480769231,65.0086012 -0.0137362637,65.1634224 0.291208791,65.4635582 C3.70604396,68.8166591 7.10027473,72.1914894 10.5164835,75.5432322 C10.6196577,75.6451254 10.67763,75.7833902 10.67763,75.927569 C10.67763,76.0717479 10.6196577,76.2100127 10.5164835,76.3119058 C7.12820513,79.6392033 3.74725275,82.9769126 0.373626374,86.325034 C-0.119505495,86.8125849 -0.119505495,86.813943 0.354395604,87.2756904 C3.79761905,90.6808511 7.23901099,94.0878225 10.6785714,97.4966048 C11.0054945,97.8225441 11.1552198,97.7763694 11.4532967,97.4789498 C14.8901099,94.050249 18.3406593,90.6301494 21.8049451,87.218651 M10.7142857,31.8483477 C8.30128205,29.4680851 5.89010989,27.0864645 3.48076923,24.7034857 C2.61401099,23.8465369 1.76098901,22.9773653 0.870879121,22.1407877 C0.565934066,21.8528746 0.51510989,21.6966953 0.848901099,21.3693979 C4.1456044,18.1480308 7.42765568,14.9135355 10.6950549,11.6659122 C10.9615385,11.4010865 11.1071429,11.3494794 11.4038462,11.645541 C14.6813187,14.9049344 17.970696,18.1570847 21.271978,21.4019919 C21.5659341,21.6899049 21.532967,21.8297872 21.2596154,22.1000453 C17.9775641,25.3340878 14.702381,28.5753735 11.4340659,31.8239022 C11.3228022,31.9339067 11.2046703,32.0384789 11.0961538,32.140335 C10.9024725,32.106383 10.8214286,31.9583522 10.7101648,31.8497057 M10.6964286,53.578995 C7.53617216,50.449072 4.37362637,47.3209597 1.20879121,44.1946582 C0.489010989,43.483024 0.487637363,43.483024 1.1978022,42.7822544 L10.6978022,33.4114984 C10.8076923,33.302852 10.9258242,33.202354 11.0590659,33.0828429 C11.1565934,33.1697601 11.2376374,33.2335899 11.3104396,33.3055681 C14.6620879,36.6183794 18.0151099,39.9298325 21.3695055,43.2399276 C21.5700549,43.4382073 21.5508242,43.5454957 21.3612637,43.7329108 C18.0206044,47.0321412 14.6868132,50.336804 11.3598901,53.646899 C11.0412088,53.9646899 10.9093407,53.7827071 10.6978022,53.5749208 M10.7115385,75.1751924 C8.3003663,72.797646 5.89010989,70.4146673 3.48076923,68.0262562 C2.61401099,67.1693074 1.76098901,66.3001358 0.870879121,65.4635582 C0.565934066,65.1756451 0.51510989,65.0194658 0.848901099,64.6935265 C4.1456044,61.4721593 7.42765568,58.2376641 10.6950549,54.9900407 C10.9615385,54.725215 11.1071429,54.673608 11.4038462,54.9696695 C14.6813187,58.2290629 17.970696,61.4812132 21.271978,64.7261204 C21.5659341,65.0140335 21.532967,65.1539158 21.2596154,65.4241738 C17.9775641,68.6582164 14.702381,71.899502 11.4340659,75.1480308 C11.3228022,75.2580353 11.2046703,75.3626075 11.0961538,75.4644636 C10.9024725,75.4305115 10.8214286,75.2811227 10.7101648,75.1738343 M11.3653846,96.9832503 C11.0467033,97.3010412 10.9148352,97.1190584 10.7032967,96.9112721 C7.54304029,93.781349 4.38049451,90.6532368 1.21565934,87.5269353 C0.495879121,86.815301 0.494505495,86.813943 1.20467033,86.1145315 L10.7046703,76.7437755 C10.8145604,76.635129 10.9326923,76.5346311 11.0659341,76.41512 C11.1634615,76.5020371 11.2445055,76.5658669 11.3173077,76.6378452 C14.668956,79.9506564 18.021978,83.2621096 21.3763736,86.5722046 C21.5769231,86.7704844 21.5576923,86.8777727 21.3681319,87.0651879 C18.0274725,90.3644183 14.6936813,93.669081 11.3667582,96.9791761" id="Shape" fill-rule="nonzero"></path>
                        <rect id="Rectangle" x="11.0563187" y="65.0615663" width="1" height="1"></rect>
                        <rect id="Rectangle" x="24.9505495" y="11.0384789" width="1" height="1"></rect>
                        <path d="M25.4134615,32.8057945 C27.0824176,32.8248076 28.7527473,32.813943 30.4217033,32.813943 L32.5192308,32.813943 C32.6217219,32.8138279 32.7139959,32.75253 32.7528376,32.6587574 C32.7916793,32.5649848 32.7693979,32.4573047 32.6964286,32.3861476 L25.3186813,25.0918968 C25.2572344,25.0314833 25.1650325,25.0136072 25.0850586,25.0466021 C25.0050847,25.079597 24.9530834,25.156967 24.9532967,25.2426437 C24.9532967,27.5785423 24.9395604,29.9130828 24.9601648,32.2489814 C24.9601648,32.6713445 24.8365385,32.7745586 24.4244505,32.7718425 C22.0453297,32.7541874 19.6648352,32.7609778 17.2815934,32.7718425 C17.2002779,32.7704318 17.1261518,32.8177137 17.0939335,32.8915427 C17.0617152,32.9653717 17.0777847,33.0511283 17.1346154,33.1086464 L24.5989011,40.5400634 C24.658866,40.600252 24.7497208,40.6185524 24.828723,40.5863552 C24.9077252,40.5541579 24.9591446,40.4778739 24.9587912,40.3933907 C24.9587912,38.022182 24.9656593,35.6523314 24.9505495,33.2811227 C24.9505495,32.9185152 25.0425824,32.8003622 25.4217033,32.8044364" id="Path"></path>
                        <path d="M25.4134615,54.3571752 C27.0824176,54.3761883 28.7527473,54.3653237 30.4217033,54.3653237 L32.5192308,54.3653237 C32.6217219,54.3652086 32.7139959,54.3039107 32.7528376,54.2101381 C32.7916793,54.1163655 32.7693979,54.0086854 32.6964286,53.9375283 L25.3186813,46.6432775 C25.2572344,46.582864 25.1650325,46.564988 25.0850586,46.5979828 C25.0050847,46.6309777 24.9530834,46.7083478 24.9532967,46.7940244 C24.9532967,49.129923 24.9395604,51.4644636 24.9601648,53.8003622 C24.9601648,54.2227252 24.8365385,54.3259393 24.4244505,54.3232232 C22.0453297,54.3055681 19.6648352,54.3123585 17.2815934,54.3232232 C17.2002779,54.3218125 17.1261518,54.3690944 17.0939335,54.4429234 C17.0617152,54.5167525 17.0777847,54.602509 17.1346154,54.6600272 L24.5989011,62.0914441 C24.658866,62.1516327 24.7497208,62.1699331 24.828723,62.1377359 C24.9077252,62.1055386 24.9591446,62.0292546 24.9587912,61.9447714 C24.9587912,59.5735627 24.9656593,57.2037121 24.9505495,54.8325034 C24.9505495,54.4698959 25.0425824,54.3517429 25.4217033,54.3558171" id="Path"></path>
                        <path d="M25.4134615,76.0212766 C27.0824176,76.0402897 28.7527473,76.0294251 30.4217033,76.0294251 L32.5192308,76.0294251 C32.6217219,76.02931 32.7139959,75.9680121 32.7528376,75.8742395 C32.7916793,75.7804669 32.7693979,75.6727868 32.6964286,75.6016297 L25.3186813,68.3073789 C25.2572344,68.2469654 25.1650325,68.2290894 25.0850586,68.2620842 C25.0050847,68.2950791 24.9530834,68.3724492 24.9532967,68.4581258 C24.9532967,70.7940244 24.9395604,73.128565 24.9601648,75.4644636 C24.9601648,75.8868266 24.8365385,75.9900407 24.4244505,75.9873246 C22.0453297,75.9696695 19.6648352,75.9764599 17.2815934,75.9873246 C17.2002779,75.9859139 17.1261518,76.0331958 17.0939335,76.1070248 C17.0617152,76.1808539 17.0777847,76.2666104 17.1346154,76.3241286 L24.5989011,83.7555455 C24.658866,83.8157341 24.7497208,83.8340345 24.828723,83.8018373 C24.9077252,83.76964 24.9591446,83.693356 24.9587912,83.6088728 C24.9587912,81.2376641 24.9656593,78.8678135 24.9505495,76.4979629 C24.9505495,76.1353554 25.0425824,76.0172024 25.4217033,76.0212766" id="Path"></path>
                        <path d="M25.4134615,97.4680851 C27.0824176,97.4870982 28.7527473,97.4762336 30.4217033,97.4762336 L32.5192308,97.4762336 C32.6217219,97.4761185 32.7139959,97.4148206 32.7528376,97.321048 C32.7916793,97.2272755 32.7693979,97.1195953 32.6964286,97.0484382 L25.3131868,89.7555455 C25.2517399,89.695132 25.159538,89.677256 25.0795641,89.7102508 C24.9995902,89.7432457 24.9475889,89.8206158 24.9478022,89.9062924 C24.9478022,92.242191 24.9340659,94.5767316 24.9546703,96.9126301 C24.9546703,97.3349932 24.831044,97.4382073 24.418956,97.4354912 C22.0398352,97.4178361 19.6593407,97.4246265 17.2760989,97.4354912 C17.1947834,97.4340805 17.1206573,97.4813624 17.088439,97.5551914 C17.0562207,97.6290205 17.0722902,97.714777 17.1291209,97.7722952 L24.5934066,105.203712 C24.6533715,105.263901 24.7442263,105.282201 24.8232285,105.250004 C24.9022307,105.217807 24.9536501,105.141523 24.9532967,105.057039 C24.9532967,102.685831 24.9601648,100.31598 24.9450549,97.9461295 C24.9450549,97.583522 25.0370879,97.4653689 25.4162088,97.4694432" id="Path"></path>
                        <path d="M25.4134615,11.0330466 C27.0824176,11.0520598 28.7527473,11.0411951 30.4217033,11.0411951 L32.5192308,11.0411951 C32.6217219,11.04108 32.7139959,10.9797821 32.7528376,10.8860096 C32.7916793,10.792237 32.7693979,10.6845568 32.6964286,10.6133997 L25.3131868,3.31914894 C25.2517399,3.25873545 25.159538,3.2408594 25.0795641,3.27385427 C24.9995902,3.30684915 24.9475889,3.3842192 24.9478022,3.46989588 C24.9478022,5.80579448 24.9340659,8.14033499 24.9546703,10.4762336 C24.9546703,10.8985967 24.831044,11.0018108 24.418956,10.9990946 C22.0398352,10.9814396 19.6593407,10.98823 17.2760989,10.9990946 C17.1947834,10.9976839 17.1206573,11.0449658 17.088439,11.1187949 C17.0562207,11.1926239 17.0722902,11.2783804 17.1291209,11.3358986 L24.5934066,18.7673155 C24.6533715,18.8275042 24.7442263,18.8458045 24.8232285,18.8136073 C24.9022307,18.7814101 24.9536501,18.705126 24.9532967,18.6206428 C24.9532967,16.2494341 24.9601648,13.8795835 24.9450549,11.5083748 C24.9450549,11.1471254 25.0370879,11.0276143 25.4162088,11.0316885" id="Path"></path>
                        <path d="M39.3763736,21.6817565 C41.0453297,21.7007696 42.7156593,21.6899049 44.3846154,21.6899049 L46.4766484,21.6899049 C46.5791394,21.6897898 46.6714135,21.628492 46.7102552,21.5347194 C46.7490969,21.4409468 46.7268155,21.3332667 46.6538462,21.2621096 L39.2760989,13.9746492 C39.214652,13.9142357 39.1224501,13.8963596 39.0424762,13.9293545 C38.9625023,13.9623494 38.910501,14.0397194 38.9107143,14.1253961 C38.9107143,16.4612947 38.896978,18.7958352 38.9175824,21.1317338 C38.9175824,21.5540969 38.793956,21.657311 38.3818681,21.6545948 C36.0027473,21.6369398 33.6222527,21.6437302 31.239011,21.6545948 C31.1576955,21.6531842 31.0835694,21.7004661 31.0513511,21.7742951 C31.0191328,21.8481241 31.0352023,21.9338806 31.092033,21.9913988 L38.5563187,29.4228158 C38.6162836,29.4830044 38.7071384,29.5013048 38.7861406,29.4691075 C38.8651428,29.4369103 38.9165622,29.3606263 38.9162088,29.2761431 C38.9162088,26.9049344 38.9230769,24.5350837 38.907967,22.1638751 C38.907967,21.8026256 39,21.6831145 39.3791209,21.6871888" id="Path"></path>
                        <path d="M39.3763736,43.6025351 C41.0453297,43.6215482 42.7156593,43.6106836 44.3846154,43.6106836 L46.4766484,43.6106836 C46.5791394,43.6105685 46.6714135,43.5492706 46.7102552,43.455498 C46.7490969,43.3617254 46.7268155,43.2540453 46.6538462,43.1828882 L39.2760989,35.8886374 C39.214652,35.8282239 39.1224501,35.8103479 39.0424762,35.8433427 C38.9625023,35.8763376 38.910501,35.9537077 38.9107143,36.0393843 C38.9107143,38.3752829 38.896978,40.7098234 38.9175824,43.045722 C38.9175824,43.4680851 38.793956,43.5712992 38.3818681,43.5685831 C36.0027473,43.550928 33.6222527,43.5577184 31.239011,43.5685831 C31.1576955,43.5671724 31.0835694,43.6144543 31.0513511,43.6882833 C31.0191328,43.7621124 31.0352023,43.8478689 31.092033,43.9053871 L38.5563187,51.336804 C38.6162836,51.3969926 38.7071384,51.415293 38.7861406,51.3830958 C38.8651428,51.3508985 38.9165622,51.2746145 38.9162088,51.1901313 C38.9162088,48.8202807 38.9230769,46.449072 38.907967,44.0792214 C38.907967,43.7166139 39,43.5984608 39.3791209,43.6025351" id="Path"></path>
                        <path d="M39.3763736,65.1131734 C41.0453297,65.1321865 42.7156593,65.1213219 44.3846154,65.1213219 L46.4766484,65.1213219 C46.5791394,65.1212068 46.6714135,65.0599089 46.7102552,64.9661363 C46.7490969,64.8723637 46.7268155,64.7646836 46.6538462,64.6935265 L39.2760989,57.3992757 C39.214652,57.3388622 39.1224501,57.3209861 39.0424762,57.353981 C38.9625023,57.3869759 38.910501,57.464346 38.9107143,57.5500226 C38.9107143,59.8859212 38.896978,62.2204617 38.9175824,64.5563603 C38.9175824,64.9787234 38.793956,65.0819375 38.3818681,65.0792214 C36.0027473,65.0615663 33.6222527,65.0683567 31.239011,65.0792214 C31.1576955,65.0778107 31.0835694,65.1250926 31.0513511,65.1989216 C31.0191328,65.2727506 31.0352023,65.3585072 31.092033,65.4160254 L38.5563187,72.8474423 C38.6162836,72.9076309 38.7071384,72.9259313 38.7861406,72.8937341 C38.8651428,72.8615368 38.9165622,72.7852528 38.9162088,72.7007696 C38.9162088,70.330919 38.9230769,67.9597103 38.907967,65.5898597 C38.907967,65.2272522 39,65.1090991 39.3791209,65.1131734" id="Path"></path>
                        <path d="M39.3763736,86.7759167 C41.0453297,86.7949298 42.7156593,86.7840652 44.3846154,86.7840652 L46.4766484,86.7840652 C46.5773434,86.7823576 46.6674037,86.7217096 46.705884,86.6296944 C46.7443642,86.5376792 46.72392,86.4318589 46.6538462,86.360344 L39.2760989,79.0660933 C39.214652,79.0056798 39.1224501,78.9878037 39.0424762,79.0207986 C38.9625023,79.0537935 38.910501,79.1311635 38.9107143,79.2168402 C38.9107143,81.5527388 38.896978,83.8872793 38.9175824,86.2231779 C38.9175824,86.645541 38.793956,86.7487551 38.3818681,86.7460389 C36.0027473,86.7283839 33.6222527,86.7351743 31.239011,86.7460389 C31.1576955,86.7446283 31.0835694,86.7919102 31.0513511,86.8657392 C31.0191328,86.9395682 31.0352023,87.0253247 31.092033,87.0828429 L38.5535714,94.5088275 C38.6135364,94.5690162 38.7043911,94.5873165 38.7833933,94.5551193 C38.8623955,94.5229221 38.913815,94.446638 38.9134615,94.3621548 C38.9134615,91.9909461 38.9203297,89.6210955 38.9052198,87.2498868 C38.9052198,86.8872793 38.9972527,86.7691263 39.3763736,86.7732005" id="Path"></path>
                        <path d="M11.5233516,21.6817565 C13.1923077,21.7007696 14.8626374,21.6899049 16.5315934,21.6899049 L18.6236264,21.6899049 C18.7261175,21.6897898 18.8183915,21.628492 18.8572332,21.5347194 C18.8960749,21.4409468 18.8737935,21.3332667 18.8008242,21.2621096 L11.4230769,13.9746492 C11.36163,13.9142357 11.2694281,13.8963596 11.1894542,13.9293545 C11.1094803,13.9623494 11.057479,14.0397194 11.0576923,14.1253961 C11.0576923,16.4612947 11.043956,18.7958352 11.0645604,21.1317338 C11.0645604,21.5540969 10.9409341,21.657311 10.5288462,21.6545948 C8.14972527,21.6369398 5.76923077,21.6437302 3.38598901,21.6545948 C3.30467353,21.6531842 3.23054738,21.7004661 3.19832911,21.7742951 C3.16611083,21.8481241 3.18218028,21.9338806 3.23901099,21.9913988 L10.7032967,29.4228158 C10.7632617,29.4830044 10.8541164,29.5013048 10.9331186,29.4691075 C11.0121208,29.4369103 11.0635402,29.3606263 11.0631868,29.2761431 C11.0631868,26.9049344 11.0714286,24.5350837 11.0549451,22.1638751 C11.0549451,21.8026256 11.146978,21.6831145 11.5260989,21.6871888" id="Path"></path>
                        <path d="M11.5233516,43.2331372 C13.1923077,43.2521503 14.8626374,43.2412856 16.5315934,43.2412856 L18.6236264,43.2412856 C18.7261175,43.2411705 18.8183915,43.1798727 18.8572332,43.0861001 C18.8960749,42.9923275 18.8737935,42.8846474 18.8008242,42.8134903 L11.4230769,35.5192395 C11.36163,35.458826 11.2694281,35.4409499 11.1894542,35.4739448 C11.1094803,35.5069397 11.057479,35.5843097 11.0576923,35.6699864 C11.0576923,38.005885 11.043956,40.3404255 11.0645604,42.6763241 C11.0645604,43.0986872 10.9409341,43.2019013 10.5288462,43.1991852 C8.14972527,43.1815301 5.76923077,43.1883205 3.38598901,43.1991852 C3.30467353,43.1977745 3.23054738,43.2450564 3.19832911,43.3188854 C3.16611083,43.3927144 3.18218028,43.478471 3.23901099,43.5359891 L10.7032967,50.9674061 C10.7632617,51.0275947 10.8541164,51.0458951 10.9331186,51.0136978 C11.0121208,50.9815006 11.0635402,50.9052166 11.0631868,50.8207334 C11.0631868,48.4508828 11.0714286,46.0796741 11.0549451,43.7098234 C11.0549451,43.3472159 11.146978,43.2290629 11.5260989,43.2331372" id="Path"></path>
                        <path d="M11.5233516,65.1131734 C13.1923077,65.1321865 14.8626374,65.1213219 16.5315934,65.1213219 L18.6236264,65.1213219 C18.7261175,65.1212068 18.8183915,65.0599089 18.8572332,64.9661363 C18.8960749,64.8723637 18.8737935,64.7646836 18.8008242,64.6935265 L11.4230769,57.3992757 C11.36163,57.3388622 11.2694281,57.3209861 11.1894542,57.353981 C11.1094803,57.3869759 11.057479,57.464346 11.0576923,57.5500226 C11.0576923,59.8859212 11.043956,62.2204617 11.0645604,64.5563603 C11.0645604,64.9787234 10.9409341,65.0819375 10.5288462,65.0792214 C8.14972527,65.0615663 5.76923077,65.0683567 3.38598901,65.0792214 C3.30467353,65.0778107 3.23054738,65.1250926 3.19832911,65.1989216 C3.16611083,65.2727506 3.18218028,65.3585072 3.23901099,65.4160254 L10.7032967,72.8474423 C10.7632617,72.9076309 10.8541164,72.9259313 10.9331186,72.8937341 C11.0121208,72.8615368 11.0635402,72.7852528 11.0631868,72.7007696 C11.0631868,70.330919 11.0714286,67.9597103 11.0549451,65.5898597 C11.0549451,65.2272522 11.146978,65.1090991 11.5260989,65.1131734" id="Path"></path>
                        <path d="M11.5233516,86.7759167 C13.1923077,86.7949298 14.8626374,86.7840652 16.5315934,86.7840652 L18.6236264,86.7840652 C18.7261175,86.7839501 18.8183915,86.7226522 18.8572332,86.6288796 C18.8960749,86.5351071 18.8737935,86.4274269 18.8008242,86.3562698 L11.4230769,79.062019 C11.36163,79.0016055 11.2694281,78.9837295 11.1894542,79.0167244 C11.1094803,79.0497192 11.057479,79.1270893 11.0576923,79.212766 C11.0576923,81.5486646 11.043956,83.8832051 11.0645604,86.2191037 C11.0645604,86.6414667 10.9409341,86.7446809 10.5288462,86.7419647 C8.14972527,86.7243096 5.76923077,86.7311 3.38598901,86.7419647 C3.30467353,86.740554 3.23054738,86.7878359 3.19832911,86.8616649 C3.16611083,86.935494 3.18218028,87.0212505 3.23901099,87.0787687 L10.7005495,94.5088275 C10.7605144,94.5690162 10.8513691,94.5873165 10.9303713,94.5551193 C11.0093735,94.5229221 11.060793,94.446638 11.0604396,94.3621548 C11.0604396,91.9909461 11.0686813,89.6210955 11.0521978,87.2498868 C11.0521978,86.8872793 11.1442308,86.7691263 11.5233516,86.7732005" id="Path"></path>
                        <path d="M25.5989011,87.101856 C25.4423077,86.949751 25.3516484,86.8465369 25.282967,86.7786329 L25.3461538,86.7175192 C28.7847985,83.2879131 32.2344322,79.8696243 35.6950549,76.4626528 C36.0233516,76.1394296 36.0370879,75.9818923 35.6950549,75.6478044 C32.3008242,72.3232232 28.9340659,68.9728384 25.5384615,65.6496152 C25.1620879,65.2802173 25.1456044,65.106383 25.5384615,64.7206881 C28.9459707,61.3852422 32.3397436,58.0353101 35.7197802,54.6708918 C35.8296703,54.5608873 35.9340659,54.4454504 36.0604396,54.3096424 C35.9519231,54.1928474 35.8612637,54.0869172 35.7637363,53.9904934 C32.2454212,50.5165233 28.7289377,47.0407424 25.2142857,43.5631507 C25.2554945,43.5291987 25.2980769,43.4884563 25.3516484,43.4422816 C28.790293,40.0126754 32.2399267,36.5943866 35.7005495,33.1874151 C36.0288462,32.86555 36.0425824,32.7066546 35.7005495,32.3725668 C32.3063187,29.0479855 28.9395604,25.6976007 25.543956,22.3743775 C25.1675824,22.0049796 25.1510989,21.8311453 25.543956,21.4454504 C28.9514652,18.1100045 32.3452381,14.7600724 35.7252747,11.3956541 C35.8351648,11.2870077 35.9395604,11.1702128 36.0659341,11.0344047 C35.9574176,10.9176098 35.8667582,10.8116795 35.7692308,10.7152558 C32.2509158,7.24128565 28.7339744,3.76505206 25.2184066,0.286555002 C24.9752747,0.0448166591 24.8763736,0.077410593 24.6524725,0.300135808 C21.172619,3.76052512 17.6808608,7.21186057 14.1771978,10.6541421 C13.8516484,10.9732911 13.885989,11.1281123 14.1909341,11.4282481 C17.6057692,14.781349 21,18.1561793 24.4162088,21.5079221 C24.7321429,21.8175645 24.7307692,21.9683115 24.4162088,22.2779538 C21.0206044,25.6152105 17.6373626,28.9588049 14.2664835,32.308737 C13.7733516,32.7962879 13.7733516,32.797646 14.2472527,33.2593934 C17.6913919,36.6582164 21.132326,40.0602082 24.5700549,43.4653689 C24.6057692,43.500679 24.6387363,43.5319149 24.6717033,43.5590765 L24.646978,43.583522 C21.1671245,47.0439113 17.6753663,50.4952467 14.1717033,53.9375283 C13.8461538,54.2566772 13.8804945,54.4114984 14.1854396,54.7116342 C17.6002747,58.0647352 20.9945055,61.4395654 24.4107143,64.7913083 C24.7266484,65.1009507 24.7252747,65.2516976 24.4107143,65.56134 C21.0224359,68.8886374 17.6414835,72.2258941 14.2678571,75.57311 C13.7747253,76.0606609 13.7747253,76.062019 14.2486264,76.5237664 C17.6927656,79.9225894 21.1336996,83.3245813 24.5714286,86.729742 C24.603022,86.7609778 24.6318681,86.7867813 24.6593407,86.8112268 L24.467033,87.0027162 C21.0787546,90.3300136 17.6978022,93.6672703 14.3241758,97.0144862 C13.831044,97.5020371 13.831044,97.5033952 14.3049451,97.9651426 C17.7490842,101.363966 21.1900183,104.765957 24.6277473,108.171118 C24.9546703,108.497057 25.1043956,108.450883 25.4024725,108.153463 C28.8411172,104.723857 32.2907509,101.305568 35.7513736,97.8985967 C36.0796703,97.5753735 36.0934066,97.4178361 35.7513736,97.0837483 C32.3571429,93.759167 28.9903846,90.4087823 25.5947802,87.0855591 M24.6071429,21.1575373 C22.1941392,18.7763694 19.782967,16.3938434 17.3736264,14.0099593 C16.5068681,13.1530104 15.6538462,12.2838388 14.7637363,11.4472612 C14.4587912,11.1593481 14.407967,11.0031689 14.7417582,10.6772295 C18.0384615,7.45586238 21.3205128,4.22136713 24.5879121,0.973743775 C24.8543956,0.710276143 25,0.657311 25.2967033,0.953372567 C28.5741758,4.21276596 31.8635531,7.46491625 35.1648352,10.7098234 C35.4587912,10.9977365 35.4258242,11.1376188 35.1524725,11.4078769 C31.8704212,14.6419194 28.595696,17.8832051 25.3282967,21.1317338 C25.217033,21.2417383 25.0989011,21.3463105 24.9903846,21.4481666 C24.7967033,21.4142146 24.7156593,21.2648257 24.6043956,21.1575373 M24.5892857,42.8868266 C21.4290293,39.7569036 18.2664835,36.629244 15.1016484,33.5038479 C14.3818681,32.7922137 14.3818681,32.7908556 15.0906593,32.0914441 L24.5906593,22.7206881 C24.7005495,22.6120416 24.8186813,22.5115437 24.9519231,22.3920326 C25.0494505,22.4789498 25.1304945,22.5427795 25.2032967,22.6147578 C28.5549451,25.927569 31.907967,29.2390222 35.2623626,32.5491172 C35.4629121,32.747397 35.4436813,32.8546854 35.2527473,33.0421005 C31.9120879,36.3413309 28.5782967,39.6459937 25.2513736,42.9560887 C24.9326923,43.2738796 24.8008242,43.0918968 24.5892857,42.8841105 M24.6043956,64.4219104 C22.1913919,62.0407424 19.7802198,59.6582164 17.3708791,57.2743323 C16.5041209,56.4173834 15.6510989,55.5482119 14.760989,54.7116342 C14.456044,54.4237211 14.4052198,54.2675419 14.739011,53.9416025 C18.0357143,50.7202354 21.3177656,47.4857402 24.5851648,44.2381168 C24.8516484,43.9732911 24.9972527,43.921684 25.293956,44.2177456 C28.5714286,47.477139 31.8608059,50.7292893 35.1620879,53.9741965 C35.456044,54.2621096 35.4230769,54.4019919 35.1497253,54.6722499 C31.867674,57.9062924 28.5929487,61.1475781 25.3255495,64.3961068 C25.2142857,64.5061114 25.0961538,64.6106836 24.9876374,64.7125396 C24.793956,64.6785876 24.7129121,64.5291987 24.6016484,64.4219104 M24.5865385,86.1511996 C21.4262821,83.0212766 18.2637363,79.8931643 15.0989011,76.7668628 C14.3791209,76.0552286 14.3791209,76.0552286 15.0879121,75.3558171 L24.5879121,65.9850611 C24.6978022,65.8764147 24.8159341,65.7759167 24.9491758,65.6564056 C25.0467033,65.7433228 25.1277473,65.8071526 25.2005495,65.8791308 C28.5521978,69.1919421 31.9052198,72.5033952 35.2596154,75.8134903 C35.4601648,76.01177 35.4409341,76.1190584 35.25,76.3064735 C31.9093407,79.6057039 28.5755495,82.9103667 25.2486264,86.2204617 C24.9299451,86.5382526 24.7980769,86.3562698 24.5865385,86.1484835 M35.3008242,97.7505659 C31.9601648,101.049796 28.6263736,104.354459 25.2994505,107.664554 C24.9807692,107.982345 24.8489011,107.800362 24.6373626,107.592576 C21.4771062,104.462653 18.3145604,101.334993 15.1497253,98.2095971 C14.4299451,97.4979629 14.4299451,97.4966048 15.1387363,96.7971933 L24.6387363,87.4264373 C24.7486264,87.3177909 24.8667582,87.2172929 25,87.0977818 C25.0975275,87.184699 25.1785714,87.2485287 25.2513736,87.320507 C28.603022,90.6333182 31.956044,93.9447714 35.3104396,97.2548665 C35.510989,97.4531462 35.4903846,97.5604346 35.3021978,97.7478497" id="Shape" fill-rule="nonzero"></path>
                        <rect id="Rectangle" x="24.9505495" y="54.3055681" width="1" height="1"></rect>
                    </g>
                </g>
            </g>
        </g>
    </g>
</svg>